<mxfile host="app.diagrams.net" modified="2021-11-30T11:21:23.975Z" agent="5.0 (Windows)" etag="HuQPgHwDY8V-xAfdnPp4" version="15.8.7" type="github">
  <diagram id="mLPpQYJzLz1xqzUndZVS" name="Page-1">
    <mxGraphModel dx="1422" dy="752" grid="1" gridSize="10" guides="1" tooltips="1" connect="1" arrows="1" fold="1" page="1" pageScale="1" pageWidth="827" pageHeight="1169" math="0" shadow="0">
      <root>
        <mxCell id="0" />
        <mxCell id="1" parent="0" />
        <mxCell id="8U_8XwLauRsZ4ZYQqi3w-3" value="Xilinx XCZU7EV-1FBVB900 (PL)" style="shape=umlFrame;whiteSpace=wrap;html=1;width=210;height=30;boundedLbl=1;verticalAlign=middle;align=left;spacingLeft=5;fillColor=default;swimlaneFillColor=#ffffff;" parent="1" vertex="1">
          <mxGeometry x="40" y="240" width="760" height="920" as="geometry" />
        </mxCell>
        <mxCell id="8U_8XwLauRsZ4ZYQqi3w-2" value="&lt;div&gt;Ethernet MAC&lt;/div&gt;" style="shape=umlFrame;whiteSpace=wrap;html=1;width=120;height=30;boundedLbl=1;verticalAlign=middle;align=left;spacingLeft=5;fillColor=#FFFFFF;swimlaneFillColor=#ECFFD9;" parent="1" vertex="1">
          <mxGeometry x="80" y="300" width="680" height="240" as="geometry" />
        </mxCell>
        <mxCell id="9wRkoVYpAe7Pgj8xl5cS-7" value="" style="group;fillColor=none;" parent="1" vertex="1" connectable="0">
          <mxGeometry x="200" y="10" width="400" height="160" as="geometry" />
        </mxCell>
        <mxCell id="9wRkoVYpAe7Pgj8xl5cS-1" value="AVNET Network FMC" style="shape=umlFrame;whiteSpace=wrap;html=1;width=150;height=30;boundedLbl=1;verticalAlign=middle;align=left;spacingLeft=5;fillColor=#FFFFFF;swimlaneFillColor=#F5F4F7;" parent="9wRkoVYpAe7Pgj8xl5cS-7" vertex="1">
          <mxGeometry width="360" height="160" as="geometry" />
        </mxCell>
        <mxCell id="9wRkoVYpAe7Pgj8xl5cS-3" value="&lt;span style=&quot;&quot;&gt;RJ-45&lt;/span&gt;" style="rounded=0;whiteSpace=wrap;html=1;labelBackgroundColor=none;fillColor=#F7F2FF;" parent="9wRkoVYpAe7Pgj8xl5cS-7" vertex="1">
          <mxGeometry x="320" y="50" width="80" height="80" as="geometry" />
        </mxCell>
        <mxCell id="9wRkoVYpAe7Pgj8xl5cS-4" value="Ethernet PHY" style="rounded=0;whiteSpace=wrap;html=1;labelBackgroundColor=none;fillColor=#F7F2FF;" parent="9wRkoVYpAe7Pgj8xl5cS-7" vertex="1">
          <mxGeometry x="50" y="50" width="200" height="80" as="geometry" />
        </mxCell>
        <mxCell id="9wRkoVYpAe7Pgj8xl5cS-6" value="" style="shape=flexArrow;endArrow=classic;startArrow=classic;html=1;rounded=0;fontColor=none;entryX=0;entryY=0.5;entryDx=0;entryDy=0;exitX=1;exitY=0.5;exitDx=0;exitDy=0;fillColor=default;" parent="9wRkoVYpAe7Pgj8xl5cS-7" source="9wRkoVYpAe7Pgj8xl5cS-4" target="9wRkoVYpAe7Pgj8xl5cS-3" edge="1">
          <mxGeometry width="100" height="100" relative="1" as="geometry">
            <mxPoint x="200" y="150" as="sourcePoint" />
            <mxPoint x="300" y="50" as="targetPoint" />
          </mxGeometry>
        </mxCell>
        <mxCell id="9wRkoVYpAe7Pgj8xl5cS-8" value="RGMII" style="shape=flexArrow;endArrow=classic;startArrow=classic;html=1;rounded=0;fontColor=none;entryX=0.5;entryY=1;entryDx=0;entryDy=0;width=18;fillColor=#FFFFFF;labelBackgroundColor=none;horizontal=0;startSize=6;" parent="1" target="9wRkoVYpAe7Pgj8xl5cS-4" edge="1">
          <mxGeometry width="100" height="100" relative="1" as="geometry">
            <mxPoint x="350" y="300" as="sourcePoint" />
            <mxPoint x="690" y="390" as="targetPoint" />
          </mxGeometry>
        </mxCell>
        <mxCell id="9wRkoVYpAe7Pgj8xl5cS-9" value="TX FIFO (ETH Frame)" style="swimlane;fontStyle=0;childLayout=stackLayout;horizontal=1;startSize=30;horizontalStack=0;resizeParent=1;resizeParentMax=0;resizeLast=0;collapsible=1;marginBottom=0;labelBackgroundColor=none;fontColor=none;fillColor=#FFF0F1;" parent="1" vertex="1">
          <mxGeometry x="260" y="360" width="140" height="120" as="geometry" />
        </mxCell>
        <mxCell id="9wRkoVYpAe7Pgj8xl5cS-10" value="  " style="text;strokeColor=default;fillColor=#FFF0F1;align=left;verticalAlign=middle;spacingLeft=4;spacingRight=4;overflow=hidden;points=[[0,0.5],[1,0.5]];portConstraint=eastwest;rotatable=0;labelBackgroundColor=none;fontColor=none;labelBorderColor=none;" parent="9wRkoVYpAe7Pgj8xl5cS-9" vertex="1">
          <mxGeometry y="30" width="140" height="30" as="geometry" />
        </mxCell>
        <mxCell id="9wRkoVYpAe7Pgj8xl5cS-11" value=" " style="text;strokeColor=default;fillColor=#FFF0F1;align=left;verticalAlign=middle;spacingLeft=4;spacingRight=4;overflow=hidden;points=[[0,0.5],[1,0.5]];portConstraint=eastwest;rotatable=0;labelBackgroundColor=none;fontColor=none;" parent="9wRkoVYpAe7Pgj8xl5cS-9" vertex="1">
          <mxGeometry y="60" width="140" height="30" as="geometry" />
        </mxCell>
        <mxCell id="9wRkoVYpAe7Pgj8xl5cS-12" value=" " style="text;strokeColor=default;fillColor=#FFF0F1;align=left;verticalAlign=middle;spacingLeft=4;spacingRight=4;overflow=hidden;points=[[0,0.5],[1,0.5]];portConstraint=eastwest;rotatable=0;labelBackgroundColor=none;fontColor=none;" parent="9wRkoVYpAe7Pgj8xl5cS-9" vertex="1">
          <mxGeometry y="90" width="140" height="30" as="geometry" />
        </mxCell>
        <mxCell id="9wRkoVYpAe7Pgj8xl5cS-14" value="RX FIFO (ETH Frame)" style="swimlane;fontStyle=0;childLayout=stackLayout;horizontal=1;startSize=30;horizontalStack=0;resizeParent=1;resizeParentMax=0;resizeLast=0;collapsible=1;marginBottom=0;labelBackgroundColor=none;fontColor=none;fillColor=#FAF2FF;" parent="1" vertex="1">
          <mxGeometry x="100" y="360" width="130" height="120" as="geometry" />
        </mxCell>
        <mxCell id="9wRkoVYpAe7Pgj8xl5cS-15" value="  " style="text;strokeColor=default;fillColor=#FAF2FF;align=left;verticalAlign=middle;spacingLeft=4;spacingRight=4;overflow=hidden;points=[[0,0.5],[1,0.5]];portConstraint=eastwest;rotatable=0;labelBackgroundColor=none;fontColor=none;labelBorderColor=none;" parent="9wRkoVYpAe7Pgj8xl5cS-14" vertex="1">
          <mxGeometry y="30" width="130" height="30" as="geometry" />
        </mxCell>
        <mxCell id="9wRkoVYpAe7Pgj8xl5cS-16" value=" " style="text;strokeColor=default;fillColor=#FAF2FF;align=left;verticalAlign=middle;spacingLeft=4;spacingRight=4;overflow=hidden;points=[[0,0.5],[1,0.5]];portConstraint=eastwest;rotatable=0;labelBackgroundColor=none;fontColor=none;" parent="9wRkoVYpAe7Pgj8xl5cS-14" vertex="1">
          <mxGeometry y="60" width="130" height="30" as="geometry" />
        </mxCell>
        <mxCell id="9wRkoVYpAe7Pgj8xl5cS-17" value=" " style="text;strokeColor=default;fillColor=#FAF2FF;align=left;verticalAlign=middle;spacingLeft=4;spacingRight=4;overflow=hidden;points=[[0,0.5],[1,0.5]];portConstraint=eastwest;rotatable=0;labelBackgroundColor=none;fontColor=none;" parent="9wRkoVYpAe7Pgj8xl5cS-14" vertex="1">
          <mxGeometry y="90" width="130" height="30" as="geometry" />
        </mxCell>
        <mxCell id="9wRkoVYpAe7Pgj8xl5cS-18" value="RX PTP &#xa;TS FIFO" style="swimlane;fontStyle=0;childLayout=stackLayout;horizontal=1;startSize=40;horizontalStack=0;resizeParent=1;resizeParentMax=0;resizeLast=0;collapsible=1;marginBottom=0;labelBackgroundColor=none;fontColor=none;fillColor=#FFFBED;" parent="1" vertex="1">
          <mxGeometry x="480" y="420" width="100" height="100" as="geometry" />
        </mxCell>
        <mxCell id="9wRkoVYpAe7Pgj8xl5cS-19" value="  " style="text;strokeColor=default;fillColor=#FFFBED;align=left;verticalAlign=middle;spacingLeft=4;spacingRight=4;overflow=hidden;points=[[0,0.5],[1,0.5]];portConstraint=eastwest;rotatable=0;labelBackgroundColor=none;fontColor=none;labelBorderColor=none;" parent="9wRkoVYpAe7Pgj8xl5cS-18" vertex="1">
          <mxGeometry y="40" width="100" height="20" as="geometry" />
        </mxCell>
        <mxCell id="9wRkoVYpAe7Pgj8xl5cS-20" value=" " style="text;strokeColor=default;fillColor=#FFFBED;align=left;verticalAlign=middle;spacingLeft=4;spacingRight=4;overflow=hidden;points=[[0,0.5],[1,0.5]];portConstraint=eastwest;rotatable=0;labelBackgroundColor=none;fontColor=none;" parent="9wRkoVYpAe7Pgj8xl5cS-18" vertex="1">
          <mxGeometry y="60" width="100" height="20" as="geometry" />
        </mxCell>
        <mxCell id="9wRkoVYpAe7Pgj8xl5cS-21" value=" " style="text;strokeColor=default;fillColor=#FFFBED;align=left;verticalAlign=middle;spacingLeft=4;spacingRight=4;overflow=hidden;points=[[0,0.5],[1,0.5]];portConstraint=eastwest;rotatable=0;labelBackgroundColor=none;fontColor=none;" parent="9wRkoVYpAe7Pgj8xl5cS-18" vertex="1">
          <mxGeometry y="80" width="100" height="20" as="geometry" />
        </mxCell>
        <mxCell id="9wRkoVYpAe7Pgj8xl5cS-26" value="PTP Clock" style="shape=umlFrame;whiteSpace=wrap;html=1;width=120;height=30;boundedLbl=1;verticalAlign=middle;align=left;spacingLeft=5;fillColor=#FFFFFF;swimlaneFillColor=#FFEBF4;" parent="1" vertex="1">
          <mxGeometry x="480" y="310" width="250" height="80" as="geometry" />
        </mxCell>
        <mxCell id="9wRkoVYpAe7Pgj8xl5cS-29" value="Pulpissimo" style="shape=umlFrame;whiteSpace=wrap;html=1;width=80;height=30;boundedLbl=1;verticalAlign=middle;align=left;spacingLeft=5;fillColor=#FFFFFF;swimlaneFillColor=#E0F0FF;direction=west;" parent="1" vertex="1">
          <mxGeometry x="80" y="600" width="670" height="520" as="geometry" />
        </mxCell>
        <mxCell id="9wRkoVYpAe7Pgj8xl5cS-30" value="uDMA" style="rounded=0;whiteSpace=wrap;html=1;glass=0;labelBackgroundColor=none;labelBorderColor=none;fontColor=none;strokeColor=default;fillColor=#FFEDED;" parent="1" vertex="1">
          <mxGeometry x="110" y="630" width="620" height="60" as="geometry" />
        </mxCell>
        <mxCell id="9wRkoVYpAe7Pgj8xl5cS-32" value="AXI Stream" style="shape=flexArrow;endArrow=classic;html=1;rounded=0;labelBackgroundColor=default;fontColor=none;fillColor=#FFFFFF;orthogonal=1;horizontal=0;width=20;endSize=7.33;" parent="1" source="9wRkoVYpAe7Pgj8xl5cS-17" edge="1">
          <mxGeometry width="50" height="50" relative="1" as="geometry">
            <mxPoint x="360" y="600" as="sourcePoint" />
            <mxPoint x="165" y="630" as="targetPoint" />
          </mxGeometry>
        </mxCell>
        <mxCell id="9wRkoVYpAe7Pgj8xl5cS-37" value="TCDM (Interconnect)" style="rounded=0;whiteSpace=wrap;html=1;glass=0;labelBackgroundColor=none;labelBorderColor=none;fontColor=none;strokeColor=default;fillColor=#FFFFFF;" parent="1" vertex="1">
          <mxGeometry x="110" y="740" width="620" height="60" as="geometry" />
        </mxCell>
        <mxCell id="9wRkoVYpAe7Pgj8xl5cS-38" value="Memory" style="whiteSpace=wrap;html=1;aspect=fixed;glass=0;labelBackgroundColor=none;labelBorderColor=none;fontColor=none;strokeColor=default;fillColor=#FFE7CC;gradientColor=none;" parent="1" vertex="1">
          <mxGeometry x="550" y="870" width="180" height="180" as="geometry" />
        </mxCell>
        <mxCell id="9wRkoVYpAe7Pgj8xl5cS-39" value="" style="shape=flexArrow;endArrow=classic;html=1;rounded=0;labelBackgroundColor=none;fontColor=none;fillColor=#FFFFFF;orthogonal=1;" parent="1" edge="1">
          <mxGeometry width="50" height="50" relative="1" as="geometry">
            <mxPoint x="350" y="690" as="sourcePoint" />
            <mxPoint x="349.5" y="740" as="targetPoint" />
          </mxGeometry>
        </mxCell>
        <mxCell id="9wRkoVYpAe7Pgj8xl5cS-40" value="" style="shape=flexArrow;endArrow=classic;html=1;rounded=0;labelBackgroundColor=none;fontColor=none;fillColor=#FFFFFF;entryX=0.569;entryY=1;entryDx=0;entryDy=0;entryPerimeter=0;" parent="1" edge="1">
          <mxGeometry width="50" height="50" relative="1" as="geometry">
            <mxPoint x="493" y="740" as="sourcePoint" />
            <mxPoint x="492.78" y="690" as="targetPoint" />
            <Array as="points">
              <mxPoint x="493" y="720" />
            </Array>
          </mxGeometry>
        </mxCell>
        <mxCell id="9wRkoVYpAe7Pgj8xl5cS-44" value="RISC-V Core (CV32E40P)" style="shape=umlFrame;whiteSpace=wrap;html=1;width=170;height=30;boundedLbl=1;verticalAlign=middle;align=left;spacingLeft=5;fillColor=#FFFFFF;swimlaneFillColor=#F1FCE1;direction=east;" parent="1" vertex="1">
          <mxGeometry x="110" y="870" width="370" height="180" as="geometry" />
        </mxCell>
        <mxCell id="9wRkoVYpAe7Pgj8xl5cS-49" value="RX PTP &#xa;TS FIFO" style="swimlane;fontStyle=0;childLayout=stackLayout;horizontal=1;startSize=40;horizontalStack=0;resizeParent=1;resizeParentMax=0;resizeLast=0;collapsible=1;marginBottom=0;labelBackgroundColor=none;fontColor=none;fillColor=#FFFBED;" parent="1" vertex="1">
          <mxGeometry x="630" y="420" width="100" height="100" as="geometry" />
        </mxCell>
        <mxCell id="9wRkoVYpAe7Pgj8xl5cS-50" value="  " style="text;strokeColor=default;fillColor=#FFFBED;align=left;verticalAlign=middle;spacingLeft=4;spacingRight=4;overflow=hidden;points=[[0,0.5],[1,0.5]];portConstraint=eastwest;rotatable=0;labelBackgroundColor=none;fontColor=none;labelBorderColor=none;" parent="9wRkoVYpAe7Pgj8xl5cS-49" vertex="1">
          <mxGeometry y="40" width="100" height="20" as="geometry" />
        </mxCell>
        <mxCell id="9wRkoVYpAe7Pgj8xl5cS-51" value=" " style="text;strokeColor=default;fillColor=#FFFBED;align=left;verticalAlign=middle;spacingLeft=4;spacingRight=4;overflow=hidden;points=[[0,0.5],[1,0.5]];portConstraint=eastwest;rotatable=0;labelBackgroundColor=none;fontColor=none;" parent="9wRkoVYpAe7Pgj8xl5cS-49" vertex="1">
          <mxGeometry y="60" width="100" height="20" as="geometry" />
        </mxCell>
        <mxCell id="9wRkoVYpAe7Pgj8xl5cS-52" value=" " style="text;strokeColor=default;fillColor=#FFFBED;align=left;verticalAlign=middle;spacingLeft=4;spacingRight=4;overflow=hidden;points=[[0,0.5],[1,0.5]];portConstraint=eastwest;rotatable=0;labelBackgroundColor=none;fontColor=none;" parent="9wRkoVYpAe7Pgj8xl5cS-49" vertex="1">
          <mxGeometry y="80" width="100" height="20" as="geometry" />
        </mxCell>
        <mxCell id="9wRkoVYpAe7Pgj8xl5cS-54" value="" style="shape=flexArrow;endArrow=classic;html=1;rounded=0;labelBackgroundColor=none;fontColor=none;fillColor=#FFFFFF;entryX=0.5;entryY=0;entryDx=0;entryDy=0;orthogonal=1;" parent="1" target="9wRkoVYpAe7Pgj8xl5cS-18" edge="1">
          <mxGeometry width="50" height="50" relative="1" as="geometry">
            <mxPoint x="530" y="390" as="sourcePoint" />
            <mxPoint x="310" y="550" as="targetPoint" />
          </mxGeometry>
        </mxCell>
        <mxCell id="9wRkoVYpAe7Pgj8xl5cS-56" value="" style="shape=flexArrow;endArrow=classic;html=1;rounded=0;labelBackgroundColor=none;fontColor=none;fillColor=#FFFFFF;entryX=0.5;entryY=0;entryDx=0;entryDy=0;orthogonal=1;" parent="1" edge="1">
          <mxGeometry width="50" height="50" relative="1" as="geometry">
            <mxPoint x="679.76" y="390" as="sourcePoint" />
            <mxPoint x="679.76" y="420" as="targetPoint" />
          </mxGeometry>
        </mxCell>
        <mxCell id="9wRkoVYpAe7Pgj8xl5cS-62" value="" style="shape=flexArrow;endArrow=classic;html=1;rounded=0;labelBackgroundColor=none;fontColor=none;fillColor=#FFFFFF;orthogonal=1;" parent="1" edge="1">
          <mxGeometry width="50" height="50" relative="1" as="geometry">
            <mxPoint x="220" y="800" as="sourcePoint" />
            <mxPoint x="220" y="870" as="targetPoint" />
          </mxGeometry>
        </mxCell>
        <mxCell id="9wRkoVYpAe7Pgj8xl5cS-64" value="" style="shape=flexArrow;endArrow=classic;html=1;rounded=0;labelBackgroundColor=none;fontColor=none;fillColor=#FFFFFF;exitX=0.356;exitY=0.01;exitDx=0;exitDy=0;exitPerimeter=0;" parent="1" edge="1">
          <mxGeometry width="50" height="50" relative="1" as="geometry">
            <mxPoint x="360.72" y="869.9999999999999" as="sourcePoint" />
            <mxPoint x="360" y="800" as="targetPoint" />
          </mxGeometry>
        </mxCell>
        <mxCell id="9wRkoVYpAe7Pgj8xl5cS-65" value="" style="shape=flexArrow;endArrow=classic;html=1;rounded=0;labelBackgroundColor=none;fontColor=none;fillColor=#FFFFFF;exitX=0.356;exitY=0.01;exitDx=0;exitDy=0;exitPerimeter=0;" parent="1" edge="1">
          <mxGeometry width="50" height="50" relative="1" as="geometry">
            <mxPoint x="690.72" y="870" as="sourcePoint" />
            <mxPoint x="690" y="800" as="targetPoint" />
          </mxGeometry>
        </mxCell>
        <mxCell id="9wRkoVYpAe7Pgj8xl5cS-66" value="" style="shape=flexArrow;endArrow=classic;html=1;rounded=0;labelBackgroundColor=none;fontColor=none;fillColor=#FFFFFF;orthogonal=1;" parent="1" edge="1">
          <mxGeometry width="50" height="50" relative="1" as="geometry">
            <mxPoint x="590" y="800" as="sourcePoint" />
            <mxPoint x="590" y="870" as="targetPoint" />
          </mxGeometry>
        </mxCell>
        <mxCell id="9wRkoVYpAe7Pgj8xl5cS-68" value="SW Stack" style="swimlane;fontStyle=0;childLayout=stackLayout;horizontal=1;startSize=30;horizontalStack=0;resizeParent=1;resizeParentMax=0;resizeLast=0;collapsible=1;marginBottom=0;glass=0;labelBackgroundColor=none;labelBorderColor=none;fontColor=none;strokeColor=default;fillColor=#A8FCFF;gradientColor=none;" parent="1" vertex="1">
          <mxGeometry x="225" y="910" width="140" height="120" as="geometry" />
        </mxCell>
        <mxCell id="9wRkoVYpAe7Pgj8xl5cS-69" value="PTP" style="text;strokeColor=default;fillColor=#E0FFFE;align=left;verticalAlign=middle;spacingLeft=4;spacingRight=4;overflow=hidden;points=[[0,0.5],[1,0.5]];portConstraint=eastwest;rotatable=0;glass=0;labelBackgroundColor=none;labelBorderColor=none;fontColor=none;" parent="9wRkoVYpAe7Pgj8xl5cS-68" vertex="1">
          <mxGeometry y="30" width="140" height="30" as="geometry" />
        </mxCell>
        <mxCell id="9wRkoVYpAe7Pgj8xl5cS-70" value="IP/UDP" style="text;strokeColor=default;fillColor=#E0FFFE;align=left;verticalAlign=middle;spacingLeft=4;spacingRight=4;overflow=hidden;points=[[0,0.5],[1,0.5]];portConstraint=eastwest;rotatable=0;glass=0;labelBackgroundColor=none;labelBorderColor=none;fontColor=none;" parent="9wRkoVYpAe7Pgj8xl5cS-68" vertex="1">
          <mxGeometry y="60" width="140" height="30" as="geometry" />
        </mxCell>
        <mxCell id="9wRkoVYpAe7Pgj8xl5cS-71" value="HAL (PulpOS/Pulp-RT)" style="text;strokeColor=default;fillColor=#E0FFFE;align=left;verticalAlign=middle;spacingLeft=4;spacingRight=4;overflow=hidden;points=[[0,0.5],[1,0.5]];portConstraint=eastwest;rotatable=0;glass=0;labelBackgroundColor=none;labelBorderColor=none;fontColor=none;" parent="9wRkoVYpAe7Pgj8xl5cS-68" vertex="1">
          <mxGeometry y="90" width="140" height="30" as="geometry" />
        </mxCell>
        <mxCell id="0bZ0CAgHgtpychcCBRZJ-1" value="AXI Stream" style="shape=flexArrow;endArrow=classic;html=1;rounded=0;labelBackgroundColor=default;fontColor=none;fillColor=#FFFFFF;orthogonal=1;horizontal=0;width=20;endSize=7.33;" parent="1" edge="1">
          <mxGeometry width="50" height="50" relative="1" as="geometry">
            <mxPoint x="329.5" y="630" as="sourcePoint" />
            <mxPoint x="329.5" y="480" as="targetPoint" />
          </mxGeometry>
        </mxCell>
        <mxCell id="0bZ0CAgHgtpychcCBRZJ-2" value="AXI Stream" style="shape=flexArrow;endArrow=classic;html=1;rounded=0;labelBackgroundColor=default;fontColor=none;fillColor=#FFFFFF;orthogonal=1;horizontal=0;width=20;endSize=7.33;" parent="1" edge="1">
          <mxGeometry width="50" height="50" relative="1" as="geometry">
            <mxPoint x="529.5" y="520" as="sourcePoint" />
            <mxPoint x="530" y="630" as="targetPoint" />
          </mxGeometry>
        </mxCell>
        <mxCell id="0bZ0CAgHgtpychcCBRZJ-3" value="AXI Stream" style="shape=flexArrow;endArrow=classic;html=1;rounded=0;labelBackgroundColor=default;fontColor=none;fillColor=#FFFFFF;orthogonal=1;horizontal=0;width=20;endSize=7.33;entryX=0.919;entryY=0;entryDx=0;entryDy=0;entryPerimeter=0;" parent="1" target="9wRkoVYpAe7Pgj8xl5cS-30" edge="1">
          <mxGeometry width="50" height="50" relative="1" as="geometry">
            <mxPoint x="679.5" y="520" as="sourcePoint" />
            <mxPoint x="680" y="640" as="targetPoint" />
          </mxGeometry>
        </mxCell>
      </root>
    </mxGraphModel>
  </diagram>
</mxfile>
